<svg xmlns="http://www.w3.org/2000/svg" xmlns:xlink="http://www.w3.org/1999/xlink" width="112.5" height="35" viewBox="0 0 112.5 35">
  <defs>
    <clipPath id="clip-Artboard_2">
      <rect width="112.5" height="35"/>
    </clipPath>
  </defs>
  <g id="Artboard_2" data-name="Artboard – 2" clip-path="url(#clip-Artboard_2)">
    <g id="Group_5" data-name="Group 5" transform="translate(-3424.29 -120.926)">
      <path id="Path_48" data-name="Path 48" d="M485.291,242.868h-1.952c.007-.061.012-.122.016-.186s.009-.145.02-.223v-.519a4.268,4.268,0,0,0-.062-.764,1.3,1.3,0,0,0-.188-.59.958.958,0,0,0-.387-.386,1.327,1.327,0,0,0-.613-.133,1.376,1.376,0,0,0-.613.133h0a1.518,1.518,0,0,0-.379.359h0a2.026,2.026,0,0,0-.19.525,2.919,2.919,0,0,0-.062.606,2.627,2.627,0,0,0,.062.583h0a1.85,1.85,0,0,0,.232.463,1.377,1.377,0,0,0,.38.317h.007a1.6,1.6,0,0,0,.568.1h.837a3.5,3.5,0,0,1-.153.542,1.64,1.64,0,0,1-.258.357.757.757,0,0,1-.331.175h0a1.693,1.693,0,0,1-.462.06h-.143a.329.329,0,0,1-.065-.009.7.7,0,0,0-.07-.011.42.42,0,0,0-.073-.02.3.3,0,0,1-.062-.017h-.017a.106.106,0,0,1-.054-.02l-.031-.017-.056-.028v.353l.021.011a.3.3,0,0,0,.081.027.519.519,0,0,1,.065.016.314.314,0,0,0,.089.024.591.591,0,0,1,.078.019h.238a2.65,2.65,0,0,0,.594-.045h0a1.2,1.2,0,0,0,.443-.274,1.293,1.293,0,0,0,.319-.466,2.691,2.691,0,0,0,.182-.656h2.308v-2.714h-.317Zm-2.24-.951a2.592,2.592,0,0,1-.011.295,1.881,1.881,0,0,0-.009.239,2.839,2.839,0,0,1-.037.414h-.87a.86.86,0,0,1-.709-.292,1.608,1.608,0,0,1-.2-.882,4.013,4.013,0,0,1,.04-.531,2,2,0,0,1,.161-.42.724.724,0,0,1,.292-.252h0a.7.7,0,0,1,.41-.1.726.726,0,0,1,.705.369A2.443,2.443,0,0,1,483.051,241.917Z" transform="translate(2977.496 -91.339)" fill="#fff"/>
      <rect id="Rectangle_19" data-name="Rectangle 19" width="0.324" height="4.476" transform="translate(3457.422 147.356)" fill="#fff"/>
      <path id="Path_49" data-name="Path 49" d="M470.3,221.53h-.242v.038a.166.166,0,0,1-.048.133.337.337,0,0,1-.2.053.532.532,0,0,1-.173-.019c-.031-.011-.068-.021-.1-.032l-.1-.029a1.433,1.433,0,0,0-.166-.062h-.013a.484.484,0,0,1-.085-.009.605.605,0,0,0-.1-.011.54.54,0,0,0-.331.11l-.008.008a.561.561,0,0,0-.11.352v.038h.242v-.038a.191.191,0,0,1,.049-.133.239.239,0,0,1,.179-.05.485.485,0,0,1,.153.019c.061.02.125.041.2.061l.189.062a.769.769,0,0,0,.214.023.4.4,0,0,0,.313-.113.414.414,0,0,0,.133-.359Z" transform="translate(2988.13 -75.264)" fill="#fff"/>
      <path id="Path_50" data-name="Path 50" d="M436.361,245.74a3.638,3.638,0,0,1-.041.548v.007a.776.776,0,0,1-.077.349.451.451,0,0,1-.189.191.562.562,0,0,1-.266.057.608.608,0,0,1-.194-.019.665.665,0,0,1-.175-.077l-.06-.04v.343l.021.011.033.019a.45.45,0,0,0,.094.045h.013a.565.565,0,0,1,.106.037h.215a.676.676,0,0,0,.652-.392,2.588,2.588,0,0,0,.189-1.085V243.05h-.323Z" transform="translate(3016.971 -93.926)" fill="#fff"/>
      <path id="Path_51" data-name="Path 51" d="M405.156,242.855l-.031.023h0l.031-.023h0a.928.928,0,0,0-.276-.215,1.343,1.343,0,0,0-.462-.19l-.146-.06c-.1-.041-.2-.082-.281-.123a1.532,1.532,0,0,1-.361-.2.975.975,0,0,1-.218-.278.594.594,0,0,1-.077-.329,1.218,1.218,0,0,1,.2-.757.77.77,0,0,1,.648-.274.919.919,0,0,1,.332.078.944.944,0,0,1,.252.234,1.572,1.572,0,0,1,.161.32,1.259,1.259,0,0,1,.06.377v.04h.3v-.039a1.678,1.678,0,0,0-.339-.969.991.991,0,0,0-.769-.341,1.384,1.384,0,0,0-.55.106h0a1.3,1.3,0,0,0-.36.317,1.108,1.108,0,0,0-.193.425,1.8,1.8,0,0,0-.062.483,1.1,1.1,0,0,0,.232.721,1.283,1.283,0,0,0,.738.466,3.958,3.958,0,0,0,.493.186,1.44,1.44,0,0,1,.319.179h0a.386.386,0,0,1,.169.185h0a.511.511,0,0,1,.057.23.731.731,0,0,1-.117.43h0a.758.758,0,0,1-.313.292,1.8,1.8,0,0,1-.519.161c-.191.019-.445.04-.716.04a3.2,3.2,0,0,1-.8-.081,1.206,1.206,0,0,1-.558-.307,1.494,1.494,0,0,1-.34-.58,3.068,3.068,0,0,1-.121-.93v-.039h-.3v.039a4.145,4.145,0,0,0,.1.93,1.992,1.992,0,0,0,.335.712h0a1.635,1.635,0,0,0,.652.442,2.93,2.93,0,0,0,1.021.146,3.852,3.852,0,0,0,.93-.084,2.194,2.194,0,0,0,.631-.252,1.222,1.222,0,0,0,.34-.4h0a1.269,1.269,0,0,0,.085-.509.847.847,0,0,0-.042-.32A.8.8,0,0,0,405.156,242.855Z" transform="translate(3046.56 -91.393)" fill="#fff"/>
      <path id="Path_52" data-name="Path 52" d="M452.341,240.615a.842.842,0,0,0-.386-.385,1.317,1.317,0,0,0-.614-.133,1.376,1.376,0,0,0-.612.133h0a1.523,1.523,0,0,0-.38.359h0a1.973,1.973,0,0,0-.19.524,2.842,2.842,0,0,0-.062.606,1.79,1.79,0,0,0,.084.584,1.306,1.306,0,0,0,.214.467,1.373,1.373,0,0,0,.38.317h0a1.6,1.6,0,0,0,.568.1h.838a3.409,3.409,0,0,1-.154.543,1.154,1.154,0,0,1-.256.356.674.674,0,0,1-.329.175h0a1.694,1.694,0,0,1-.462.06h-.145a.178.178,0,0,1-.048-.008.621.621,0,0,0-.086-.012.414.414,0,0,0-.073-.021.583.583,0,0,1-.068-.019h-.012a.1.1,0,0,1-.054-.02l-.032-.017-.056-.028v.353l.021.011a.3.3,0,0,0,.082.024.3.3,0,0,1,.062.017.321.321,0,0,0,.092.025.548.548,0,0,1,.077.019h.239a2.043,2.043,0,0,0,.754-.126,1.062,1.062,0,0,0,.511-.467,2.05,2.05,0,0,0,.272-.815,7.45,7.45,0,0,0,.084-1.281c0-.275-.023-.552-.043-.766A1.627,1.627,0,0,0,452.341,240.615Zm-.076,1.328a2.583,2.583,0,0,1-.011.295,1.892,1.892,0,0,0-.011.239,2.833,2.833,0,0,1-.036.414h-.871a.785.785,0,0,1-.688-.292,1.512,1.512,0,0,1-.219-.882,3.992,3.992,0,0,1,.041-.531,2.065,2.065,0,0,1,.159-.42.724.724,0,0,1,.292-.252h0a.738.738,0,0,1,.43-.1.693.693,0,0,1,.685.369A2.547,2.547,0,0,1,452.265,241.943Z" transform="translate(3004.191 -91.365)" fill="#fff"/>
      <path id="Path_53" data-name="Path 53" d="M534.962,240.614a.853.853,0,0,0-.386-.385,1.328,1.328,0,0,0-.614-.133,1.232,1.232,0,0,0-.6.133,1.306,1.306,0,0,0-.4.36h0a1.971,1.971,0,0,0-.189.525,2.839,2.839,0,0,0-.062.606,1.8,1.8,0,0,0,.082.584,1.329,1.329,0,0,0,.214.467,1.384,1.384,0,0,0,.381.317h0a1.6,1.6,0,0,0,.568.1h.837a3.573,3.573,0,0,1-.153.543,1.187,1.187,0,0,1-.266.357.6.6,0,0,1-.328.174h0a1.684,1.684,0,0,1-.462.06h-.144a.18.18,0,0,1-.049-.008.587.587,0,0,0-.086-.012.467.467,0,0,0-.061-.02.226.226,0,0,1-.053-.017h-.017a.132.132,0,0,1-.081-.024l-.025-.013-.054-.033v.353l.021.011a.282.282,0,0,0,.081.024.3.3,0,0,1,.063.017.331.331,0,0,0,.092.025.512.512,0,0,1,.078.019h.238a2.033,2.033,0,0,0,.754-.126,1.075,1.075,0,0,0,.513-.467,2.1,2.1,0,0,0,.266-.815,7.471,7.471,0,0,0,.082-1.281c0-.275-.021-.552-.041-.766A1.651,1.651,0,0,0,534.962,240.614Zm-.073,1.328a4.31,4.31,0,0,1-.02.531h0a2.847,2.847,0,0,1-.036.414h-.871a.782.782,0,0,1-.688-.292,1.522,1.522,0,0,1-.219-.882,4.008,4.008,0,0,1,.04-.531,1.354,1.354,0,0,1,.179-.418h0a.563.563,0,0,1,.265-.25h0a.738.738,0,0,1,.43-.1.673.673,0,0,1,.686.369A2.349,2.349,0,0,1,534.889,241.942Z" transform="translate(2932.543 -91.364)" fill="#fff"/>
      <rect id="Rectangle_20" data-name="Rectangle 20" width="0.324" height="0.797" transform="translate(3462.85 147.356)" fill="#fff"/>
      <path id="Path_54" data-name="Path 54" d="M667.513,234.053c-.011-.036-.02-.072-.03-.113-.02-.08-.041-.163-.061-.266s-.041-.227-.062-.348v-.007a2.514,2.514,0,0,1-.081-.467,3.409,3.409,0,0,0-.166-.664,1.593,1.593,0,0,0-.336-.544,1.461,1.461,0,0,0-1.118-.531,1.873,1.873,0,0,0-.632.106,1.6,1.6,0,0,0-.485.316,1.764,1.764,0,0,0-.315.462,1.521,1.521,0,0,0-.149.506v.043h.325v-.033a1.189,1.189,0,0,1,.139-.458h0a1.088,1.088,0,0,1,.256-.335,1.2,1.2,0,0,1,.4-.2h0a1.15,1.15,0,0,1,.457-.078,1.2,1.2,0,0,1,.478.1.954.954,0,0,1,.356.276,1.382,1.382,0,0,1,.266.44h0a2.149,2.149,0,0,1,.162.547c.02.081.041.183.061.305.011.062.021.118.031.175s.021.113.03.174c.021.123.043.228.063.309a1.142,1.142,0,0,0,.036.139h-3.741a.647.647,0,0,1-.332-.078.554.554,0,0,1-.231-.191h0a.674.674,0,0,1-.133-.292v-.008a.94.94,0,0,1-.058-.335V229.74h-.324v3.32c0,.57-.2.846-.619.846h-1.03V230.87h-.324v3.042H659.5v.3h2.191a1.167,1.167,0,0,0,.223-.031l.053-.012a.733.733,0,0,0,.175-.074l.058-.031a.621.621,0,0,0,.219-.2.84.84,0,0,0,.109-.206.566.566,0,0,0,.076.145,1.05,1.05,0,0,0,.214.212h0l.08.044a.65.65,0,0,0,.171.081.842.842,0,0,0,.3.064h4.18l-.012-.048A.641.641,0,0,0,667.513,234.053Z" transform="translate(2822.595 -82.384)" fill="#fff"/>
      <rect id="Rectangle_21" data-name="Rectangle 21" width="0.324" height="0.797" transform="translate(3488.152 147.356)" fill="#fff"/>
      <path id="Path_55" data-name="Path 55" d="M768.425,229.74h-.417L766.45,231.3h.418Z" transform="translate(2729.847 -82.384)" fill="#fff"/>
      <path id="Path_56" data-name="Path 56" d="M737.177,240.594h0a1.376,1.376,0,0,0-1.609-.337,1.107,1.107,0,0,0-.425.34,1.885,1.885,0,0,0-.252.5h0a2.8,2.8,0,0,0-.064.6,1.932,1.932,0,0,0,.084.606,1.416,1.416,0,0,0,.232.506,1.123,1.123,0,0,0,.425.341,1.314,1.314,0,0,0,1.611-.341,1.387,1.387,0,0,0,.232-.506,2.236,2.236,0,0,0,0-1.212A1.4,1.4,0,0,0,737.177,240.594Zm-.008,1.113a2.19,2.19,0,0,1-.061.531,1.119,1.119,0,0,1-.179.378.765.765,0,0,1-.313.254,1.1,1.1,0,0,1-.914,0,.674.674,0,0,1-.314-.256,1.113,1.113,0,0,1-.178-.376,2.193,2.193,0,0,1-.061-.531,1.886,1.886,0,0,1,.061-.5,1.055,1.055,0,0,1,.179-.4.664.664,0,0,1,.315-.254,1.105,1.105,0,0,1,.911,0,.786.786,0,0,1,.316.256,1.083,1.083,0,0,1,.178.4,1.931,1.931,0,0,1,.06.5Z" transform="translate(2757.271 -91.393)" fill="#fff"/>
      <path id="Path_57" data-name="Path 57" d="M764.688,231.673a1.194,1.194,0,0,0-.426-.361,1.485,1.485,0,0,0-.655-.133h-1.223l1.461-1.479h-.437l-1.508,1.507v.282h1.743a.991.991,0,0,1,.732.293,1.545,1.545,0,0,1,.279,1v1.092h-4.589v-4.172h-.324v4.475h5.237v-1.394a1.933,1.933,0,0,0-.084-.607A1.359,1.359,0,0,0,764.688,231.673Z" transform="translate(2735.667 -82.349)" fill="#fff"/>
      <path id="Path_58" data-name="Path 58" d="M822.038,232.179a1.336,1.336,0,0,0-.211-.506,1.18,1.18,0,0,0-.425-.361,1.489,1.489,0,0,0-.655-.133h-1.223l1.461-1.479h-.438l-1.5,1.5v.281h1.745a.988.988,0,0,1,.73.293,1.544,1.544,0,0,1,.279,1v1.092h-3.685v-4.167h-.324v4.475h4.332v-1.394A1.94,1.94,0,0,0,822.038,232.179Z" transform="translate(2685.325 -82.349)" fill="#fff"/>
      <path id="Path_59" data-name="Path 59" d="M803.494,245.74a3.89,3.89,0,0,1-.041.55.777.777,0,0,1-.1.352v.008a.331.331,0,0,1-.167.186.644.644,0,0,1-.291.057.531.531,0,0,1-.173-.019.664.664,0,0,1-.175-.077l-.061-.04v.335l.012.011a.459.459,0,0,0,.113.069h.017a.3.3,0,0,1,.085.023l.047.017h.218a.676.676,0,0,0,.652-.392,2.606,2.606,0,0,0,.189-1.085V243.05H803.5Z" transform="translate(2698.593 -93.926)" fill="#fff"/>
      <rect id="Rectangle_22" data-name="Rectangle 22" width="0.324" height="0.797" transform="translate(3472.428 147.89)" fill="#fff"/>
      <path id="Path_60" data-name="Path 60" d="M578.522,240.573h0a1.541,1.541,0,0,0-.421-.337h0a1.593,1.593,0,0,0-1.137,0h0a1.127,1.127,0,0,0-.424.339,1.5,1.5,0,0,0-.254.486,1.966,1.966,0,0,0-.084.628,1.8,1.8,0,0,0,.147.757,1.475,1.475,0,0,0,.339.479h-1.228a.555.555,0,0,1-.309-.077h0a.444.444,0,0,1-.228-.19v-.007a.725.725,0,0,1-.157-.3.941.941,0,0,1-.058-.335v-1.5h-.3v1.559c0,.57-.21.846-.64.846h-.93a.81.81,0,0,1-.311-.058.748.748,0,0,1-.234-.194h0a.778.778,0,0,1-.154-.272,1.011,1.011,0,0,1-.06-.337v-1.543h-.324v1.559c0,.578-.2.846-.619.846H568.2c-.6,0-.907-.388-.907-1.154v-.449H567v.449a1.557,1.557,0,0,0,.317,1.073,1.08,1.08,0,0,0,.872.384h2.921a1.147,1.147,0,0,0,.276-.042.78.78,0,0,0,.236-.106.6.6,0,0,0,.216-.2.862.862,0,0,0,.113-.214c.02.049.045.1.069.146v.007a1.05,1.05,0,0,0,.214.212h0c.023.011.045.024.068.037a.715.715,0,0,0,.2.088.7.7,0,0,0,.3.064h.93a1.063,1.063,0,0,0,.276-.042.765.765,0,0,0,.236-.106.6.6,0,0,0,.216-.2.86.86,0,0,0,.113-.214c.02.049.045.1.069.146v.007a1.007,1.007,0,0,0,.212.212h.007c.023.011.044.024.068.037a1.327,1.327,0,0,0,.5.151h2.075a1.263,1.263,0,0,0,.572-.133,1.3,1.3,0,0,0,.425-.32,1.888,1.888,0,0,0,.253-.5,1.793,1.793,0,0,0,.083-.588,1.972,1.972,0,0,0-.083-.628,1.533,1.533,0,0,0-.243-.473Zm-1.709,2.033a1.074,1.074,0,0,1-.217-.4,1.391,1.391,0,0,1-.08-.521,1.367,1.367,0,0,1,.278-.919h0a.846.846,0,0,1,.729-.312.871.871,0,0,1,.732.316,1.75,1.75,0,0,1-.008,1.841,1.013,1.013,0,0,1-1.125.236.962.962,0,0,1-.316-.236Z" transform="translate(2902.812 -91.395)" fill="#fff"/>
      <rect id="Rectangle_23" data-name="Rectangle 23" width="0.324" height="0.797" transform="translate(3477.052 152.331)" fill="#fff"/>
      <rect id="Rectangle_24" data-name="Rectangle 24" width="0.324" height="0.797" transform="translate(3471.646 147.89)" fill="#fff"/>
      <rect id="Rectangle_25" data-name="Rectangle 25" width="0.324" height="0.797" transform="translate(3479.847 147.356)" fill="#fff"/>
      <rect id="Rectangle_26" data-name="Rectangle 26" width="0.324" height="0.797" transform="translate(3480.628 147.356)" fill="#fff"/>
      <rect id="Rectangle_27" data-name="Rectangle 27" width="0.324" height="0.797" transform="translate(3476.271 152.331)" fill="#fff"/>
      <path id="Path_61" data-name="Path 61" d="M419.679,126.129v-3.5a1,1,0,0,0-.976-.976.985.985,0,0,0-.955.976v3.5a.972.972,0,0,1-.976.955h-1.814a.957.957,0,0,1-.955-.976v-.752a3.68,3.68,0,1,0-7.359,0v.752a.959.959,0,0,1-.956.976h-1.524a.958.958,0,0,1-.976-.955v-7.787a.967.967,0,1,0-1.932,0v7.787a2.89,2.89,0,0,0,2.908,2.887h1.524a2.84,2.84,0,0,0,2.134-.956,3.75,3.75,0,0,0,5,0,2.807,2.807,0,0,0,2.134.956h1.81A2.9,2.9,0,0,0,419.679,126.129Zm-9.351.955a1.738,1.738,0,1,1,1.747-1.726,1.738,1.738,0,0,1-1.747,1.726Z" transform="translate(3046.547 15.09)" fill="#fff"/>
      <path id="Path_62" data-name="Path 62" d="M589.962,141.892a5.009,5.009,0,0,0-7.345-4.478,4.44,4.44,0,0,0-1.548,1.28,3.7,3.7,0,0,0-2.558,3.548,3.8,3.8,0,0,0,.433,1.753h-2.352a.968.968,0,0,1-.969-.969v-3.548a1,1,0,0,0-.991-.991.987.987,0,0,0-.969.991v3.548a.987.987,0,0,1-.991.969.955.955,0,0,1-.969-.969v-3.548a1,1,0,0,0-.991-.991.987.987,0,0,0-.969.991v3.548a1,1,0,0,1-2,0v-3.548a.98.98,0,0,0-1.96,0v3.548a.969.969,0,0,1-.971.969h-1.629a.992.992,0,0,1-.991-.93v-3.585a.98.98,0,1,0-1.96,0v3.585a.96.96,0,0,1-.969.93H550.08v1.96h9.181a2.934,2.934,0,0,0,1.963-.742,2.894,2.894,0,0,0,1.96.742h1.625a3.021,3.021,0,0,0,1.96-.721,3.054,3.054,0,0,0,3.941,0,2.94,2.94,0,0,0,1.96.721,2.984,2.984,0,0,0,1.965-.721,2.94,2.94,0,0,0,1.96.721h13.366ZM584,144h-1.776A1.764,1.764,0,1,1,584,142.243Zm4,0h-2.042v-1.753a3.792,3.792,0,0,0-1.94-3.3,3.354,3.354,0,0,1,.908-.145,3.086,3.086,0,0,1,3.074,3.1Z" transform="translate(2917.485 -1.817)" fill="#fff"/>
      <path id="Path_63" data-name="Path 63" d="M602.024,118.577a1.106,1.106,0,0,0,1.094-1.114,1.089,1.089,0,0,0-1.094-1.094,1.11,1.11,0,0,0-1.134,1.094A1.127,1.127,0,0,0,602.024,118.577Z" transform="translate(2873.422 15.933)" fill="#fff"/>
      <path id="Path_64" data-name="Path 64" d="M582.114,118.577a1.123,1.123,0,0,0,1.114-1.114,1.106,1.106,0,0,0-1.114-1.094A1.093,1.093,0,0,0,581,117.463a1.11,1.11,0,0,0,1.114,1.114Z" transform="translate(2890.671 15.933)" fill="#fff"/>
      <path id="Path_65" data-name="Path 65" d="M525.564,118.577a1.123,1.123,0,0,0,1.114-1.114,1.106,1.106,0,0,0-1.114-1.094,1.092,1.092,0,0,0-1.114,1.094,1.109,1.109,0,0,0,1.114,1.114Z" transform="translate(2939.712 15.933)" fill="#fff"/>
    </g>
    <path id="Path_66" data-name="Path 66" d="M891.928,119.338l3.4,5.882,3.4,5.882a3.777,3.777,0,0,1-3.283,5.687H881.853a3.771,3.771,0,0,1-3.283-5.687l3.4-5.882,3.395-5.882a3.8,3.8,0,0,1,1.382-1.4h0a3.86,3.86,0,0,1,3.812,0h0a3.78,3.78,0,0,1,1.382,1.4Zm-5.348,1.321a8.385,8.385,0,0,1,2.721,13.675,8.167,8.167,0,0,1-.835.732h6.971a2.061,2.061,0,0,0,1.794-3.108l-3.395-5.882-3.4-5.881a2.066,2.066,0,0,0-.751-.767h0a2.17,2.17,0,0,0-2.08,0h0a2.057,2.057,0,0,0-.751.767l-.269.465Zm-2.951,14.407h0a6.661,6.661,0,0,0,2.082-12.892l-2.26,3.9-3.394,5.882a2.056,2.056,0,0,0,1.8,3.108Z" transform="translate(-789.724 -105.374)" fill="#ffae42"/>
  </g>
</svg>
