<svg xmlns="http://www.w3.org/2000/svg" xmlns:xlink="http://www.w3.org/1999/xlink" width="6800" height="1435" viewBox="0 0 6800 1435">
  <defs>
    <clipPath id="clip-Web_1920_1">
      <rect width="6800" height="1435"/>
    </clipPath>
  </defs>
  <g id="Web_1920_1" data-name="Web 1920 – 1" clip-path="url(#clip-Web_1920_1)">
    <g id="hastnama-01" transform="translate(1209 25.671)">
      <g id="Group_1" data-name="Group 1">
        <path id="Path_1" data-name="Path 1" d="M947.17,1219.69H844.6c.38-3.2.6-6.39.83-9.73.25-3.75.52-7.64,1-11.75v-27.24a229.179,229.179,0,0,0-3.25-40.14c-1.08-11.89-4.35-22.07-9.92-31-5-10.09-13.8-16.61-20.35-20.35-9.13-4.56-19.37-6.69-32.22-6.69-12.32,0-23.46,2.32-32.22,6.69l-.27.17c-6.85,4.89-14,10.56-19.91,18.83l-.11.17c-5.16,9-8.25,20-9.94,27.56A149.057,149.057,0,0,0,715,1158a137.937,137.937,0,0,0,3.28,30.67l.08.27c3.53,9.42,6.79,16.76,12.22,24.35a73.271,73.271,0,0,0,20,16.66l.3.14a84.929,84.929,0,0,0,29.86,5.52h44a183.444,183.444,0,0,1-8,28.42c-4.89,8.54-9,14.18-13.56,18.79-6.75,5.4-12.42,8.42-17.33,9.23h-.23a89.654,89.654,0,0,1-24.27,3.17h-7.56a20.876,20.876,0,0,1-3.39-.5,26.858,26.858,0,0,0-3.7-.57,19.392,19.392,0,0,0-3.85-1,13.853,13.853,0,0,1-3.27-.91l-.43-.21h-.48a5.21,5.21,0,0,1-2.84-1c-.5-.29-1-.6-1.65-.91l-2.94-1.46v18.57l1.12.56a17.378,17.378,0,0,0,4.3,1.34,31.431,31.431,0,0,1,3.4.89,19.085,19.085,0,0,0,4.69,1.26,28.919,28.919,0,0,1,4.08.94l.31.1h12.21a140.542,140.542,0,0,0,31.75-3.29l.27-.08c9.71-3.64,17.15-8.25,23.26-14.38,6.19-5.15,11.83-13.39,16.76-24.49,4.19-9.44,7.42-21,9.6-34.43H964.18v-142.3h-17Zm-117.7-49.81c0,5.65-.3,10.65-.58,15.5-.26,4.34-.5,8.44-.5,12.58a152.1,152.1,0,0,1-1.89,21.73H780.74c-16.5,0-29-5.16-37.22-15.35-7.11-11.23-10.42-25.95-10.42-46.33a210.621,210.621,0,0,1,2.13-27.7,106.628,106.628,0,0,1,8.39-22A38.3,38.3,0,0,1,759,1095l.22-.13c5.32-3.54,11.77-5.06,21.55-5.06,17.91,0,30,6.37,37.09,19.45,7.69,14.37,11.61,34.74,11.61,60.62Z" fill="#fff"/>
        <rect id="Rectangle_1" data-name="Rectangle 1" width="17.01" height="235.14" transform="translate(665.33 1000.48)" fill="#fff"/>
        <path id="Path_2" data-name="Path 2" d="M718,943.25H705.29v2c0,3.75-.85,5.36-2.51,7.06-2.63,1.73-5.36,2.79-10.58,2.79-3.17,0-6.15,0-9.08-1-1.65-.55-3.58-1.1-5.5-1.65s-3.61-1-5.17-1.54a79.517,79.517,0,0,0-8.77-3.29l-.31-.1H663a28.446,28.446,0,0,1-4.53-.51,31.236,31.236,0,0,0-5.19-.57,28.35,28.35,0,0,0-17.41,5.81l-.41.4a29.721,29.721,0,0,0-5.8,18.49v2h12.69v-2A10.18,10.18,0,0,1,645,964c1.83-1.83,4.71-2.65,9.36-2.65a25,25,0,0,1,8.05,1c3.21,1.07,6.53,2.17,10.75,3.22l9.87,3.28A42.4,42.4,0,0,0,694.36,970c6.47,0,11.49-1,16.45-5.89,4.89-3.74,7.17-9.72,7.17-18.81Z" fill="#fff"/>
        <path id="Path_3" data-name="Path 3" d="M450.44,1234.68a200.3,200.3,0,0,1-2.14,28.86v.29a41.24,41.24,0,0,1-4,18.39c-3,5.06-6,8-10,10-4.3,2.15-8.42,3-14.21,3-4.2,0-7.23,0-10.16-1a36.28,36.28,0,0,1-9.24-4.08l-3.15-2.1v18l1.12.56c.67.33,1.23.67,1.79,1a22.285,22.285,0,0,0,5,2.35l.63.1a22.353,22.353,0,0,1,5.58,1.95l.43.21h11.28c15.88,0,27.39-6.92,34.23-20.62,6.67-14.43,9.91-33.08,9.91-57V1093.35h-17Z" fill="#fff"/>
        <path id="Path_4" data-name="Path 4" d="M365.55,1216.19l-1.62,1.21h0l1.62-1.22h0c-3.48-4.64-9.14-8-14.54-11.27a70.923,70.923,0,0,0-24.25-10c-2.48-1.06-5.07-2.12-7.66-3.18-5.16-2.1-10.49-4.28-14.85-6.46-6.51-2.79-13.32-6-19-10.52-5.11-4.09-8.17-9.19-11.4-14.58-2.9-4.83-4-9.69-4-17.31,0-17.55,3.49-30.94,10.37-39.79,7.4-9.51,18.85-14.34,34-14.34,6.29,0,12.61,2.19,17.45,4.12,4.59,2.77,8.69,6.58,13.28,12.29,3.25,5.42,6.31,10.54,8.38,16.76a65.243,65.243,0,0,1,3.14,19.88v2h16l-.11-2.14c-1.06-20.11-7.36-38.17-17.8-50.93-11-12.07-24.18-17.94-40.38-17.94a73.518,73.518,0,0,0-28.87,5.56l-.21.11c-8.43,4.82-14.07,10.85-18.93,16.69-4.36,5.44-7.75,13-10.09,22.31a93.851,93.851,0,0,0-3.32,25.39c0,15.4,3.92,27.47,12.25,37.87,7.86,11.24,20.18,19,38.75,24.51a206.151,206.151,0,0,0,25.94,9.72,80.764,80.764,0,0,1,16.74,9.43l.17.11c5.17,3.1,8,7,8.84,9.71l.11.26a26.87,26.87,0,0,1,3,12c0,9.16-2,16.35-6.14,22.63l-.13.22c-2.75,5.52-8.29,10.68-16.47,15.35-7.26,4.15-16.73,6.26-27.27,8.38-10,1-23.32,2.15-37.59,2.15-16.78,0-30-1.36-41.58-4.25a63.421,63.421,0,0,1-29.34-16.75c-7.55-7.56-13.72-18.11-17.86-30.53s-6.38-29.46-6.38-49v-2H160v2a218.312,218.312,0,0,0,5.45,49c2.89,12.51,8.48,24.4,17.59,37.42l.15.18c9.13,10.27,20.33,17.87,34.26,23.23,13.27,5.1,31.32,7.69,53.64,7.69,21.83,0,37-1.35,49.08-4.38,13.11-3.28,24.21-7.72,33.09-13.28,6.64-4.74,12.32-11.46,17.86-21.15l.1-.21c3.06-7.14,4.48-15.63,4.48-26.72,0-5.46,0-11.1-2.25-16.82C372.21,1225.06,368.83,1220.55,365.55,1216.19Z" fill="#fff"/>
        <path id="Path_5" data-name="Path 5" d="M618.38,1099.78a44.609,44.609,0,0,0-20.3-20.26c-9.14-4.56-19.38-6.69-32.22-6.69-12.33,0-23.47,2.32-32.23,6.69l-.27.17c-6.85,4.89-14,10.56-19.91,18.83l-.11.17c-5.15,9-8.25,20-9.94,27.56a149.056,149.056,0,0,0-3.28,31.76c0,12.17,1.36,21.7,4.38,30.72a70,70,0,0,0,11.2,24.57,73.423,73.423,0,0,0,20,16.66l.3.14a85,85,0,0,0,29.87,5.52h44a184,184,0,0,1-8.05,28.49c-2.62,6.09-7,12.22-13.53,18.72-5.3,4.24-10.32,8.23-17.29,9.23h-.27a89.781,89.781,0,0,1-24.28,3.17h-7.56a12.433,12.433,0,0,1-2.57-.41,22.143,22.143,0,0,0-4.52-.67,20.231,20.231,0,0,0-3.86-1.14,30.477,30.477,0,0,1-3.53-.92l-.31-.1h-.33a5.229,5.229,0,0,1-2.84-1c-.5-.29-1-.6-1.65-.91l-2.94-1.46v18.57l1.13.56a16.884,16.884,0,0,0,4.28,1.25,13.856,13.856,0,0,1,3.27.91,18.29,18.29,0,0,0,4.84,1.33,28.783,28.783,0,0,1,4.07.94l.31.1h12.21c15.31,0,28.64-2.23,39.63-6.62,10.6-4.25,19.65-12.52,26.9-24.6a108.788,108.788,0,0,0,14.29-42.8c3-17,4.35-37.81,4.35-67.3,0-14.45-1.16-29-2.19-40.32C627.09,1118,623.59,1108.15,618.38,1099.78Zm-3.8,70.1c0,5.65-.3,10.65-.58,15.5-.26,4.34-.5,8.44-.5,12.58a150.529,150.529,0,0,1-1.89,21.73H565.86c-16.86,0-29-5.16-36.16-15.36-8-10.93-11.49-25.21-11.49-46.32a210.631,210.631,0,0,1,2.13-27.7,107.269,107.269,0,0,1,8.4-22A38.21,38.21,0,0,1,544.08,1095l.22-.13c5.39-3.59,12-5.06,22.63-5.06,17.67,0,28.77,6,36,19.46C610.67,1123.63,614.58,1144,614.58,1169.88Z" fill="#fff"/>
        <path id="Path_6" data-name="Path 6" d="M1195,1099.78a44.56,44.56,0,0,0-20.3-20.26c-9.13-4.56-19.37-6.69-32.22-6.69-12.53,0-23.63,2.4-31.31,6.79-9.62,6-15.92,11.66-21.09,18.9l-.11.17c-5.16,9-8.25,20-9.94,27.56a149,149,0,0,0-3.29,31.76c0,12.17,1.36,21.7,4.38,30.72a69.888,69.888,0,0,0,11.21,24.57,73.271,73.271,0,0,0,20,16.66l.29.14a85,85,0,0,0,29.87,5.52h44a182.909,182.909,0,0,1-8,28.49c-2.62,6.12-7.07,12.27-13.61,18.8-5,5-11.23,8.29-17.21,9.15h-.27a89.734,89.734,0,0,1-24.28,3.17h-7.56a12.347,12.347,0,0,1-2.56-.41,22.37,22.37,0,0,0-4.53-.67,19.3,19.3,0,0,0-3.21-1,13.605,13.605,0,0,1-2.83-.93l-.43-.21h-.47a7.24,7.24,0,0,1-4.26-1.24c-.41-.23-.84-.47-1.32-.71l-2.93-1.46v18.57l1.12.56a16.994,16.994,0,0,0,4.28,1.25,14,14,0,0,1,3.28.91,18.217,18.217,0,0,0,4.83,1.33,28.8,28.8,0,0,1,4.07.94l.31.1h12.21c15.31,0,28.64-2.23,39.63-6.62,10.6-4.25,19.65-12.52,26.9-24.6a108.8,108.8,0,0,0,14.3-42.8c3-17,4.35-37.81,4.35-67.3,0-14.44-1.16-29-2.2-40.32C1203.73,1118,1200.22,1108.15,1195,1099.78Zm-3.8,70.1c0,10.79,0,19.31-1.06,27.83v.25a150.675,150.675,0,0,1-1.89,21.73H1142.5c-16.86,0-29-5.16-36.16-15.36-7.94-10.93-11.49-25.21-11.49-46.32a210.623,210.623,0,0,1,2.13-27.7,70.317,70.317,0,0,1,9.41-21.93l.13-.22c2.74-5.48,7.25-9.65,14.21-13.13l.22-.13c5.39-3.59,11.94-5.06,22.63-5.06,18.18,0,30,6.33,36,19.46,7.72,14.33,11.63,34.7,11.63,60.58Z" fill="#fff"/>
        <rect id="Rectangle_2" data-name="Rectangle 2" width="17.01" height="41.85" transform="translate(950.41 1000.48)" fill="#fff"/>
        <path id="Path_7" data-name="Path 7" d="M2382.47,1227.1c-.53-1.87-1.07-3.74-1.61-5.91-1.05-4.21-2.14-8.57-3.21-13.91s-2.16-11.92-3.23-18.29l-.07-.31c-2.1-6.3-3.16-14.79-4.25-24.57-2.14-11.77-4.36-23.95-8.75-34.93-4.93-12.31-10.69-21.69-17.63-28.66a64.92,64.92,0,0,0-25.41-19.9c-10.39-6.44-23.86-7.79-33.35-7.79-11.67,0-23.74,2-33.22,5.57-10.55,4.69-19.11,10.28-25.45,16.62-5.88,5.89-11.46,14.06-16.58,24.28a80.894,80.894,0,0,0-7.75,26.58l-.29,2.28h17l.22-1.78c1.21-9.73,3.6-17.61,7.31-24.08l.1-.21c3.06-7.13,8.1-12.22,13.47-17.58,6.45-4.3,12.57-8.35,20.79-10.41l.31-.1c6.53-2.8,14.39-4.16,24-4.16a63.477,63.477,0,0,1,25.11,5.24c6.77,2.9,13,7.79,18.68,14.55,4.64,5.56,10.38,13.21,13.67,23.1l.11.27c4.22,8.43,6.33,18,8.49,28.74,1.06,4.25,2.14,9.64,3.21,16,.54,3.26,1.08,6.24,1.62,9.22s1.08,5.92,1.62,9.14c1.08,6.5,2.18,12,3.25,16.27a53.861,53.861,0,0,0,1.88,7.29H2166.17q-10.55,0-17.45-4.11c-3.74-1.87-9.07-4.95-12.12-10l-.12-.18c-4.06-5.41-6.34-10.28-7.18-15.31l-.12-.42a48.79,48.79,0,0,1-3.09-17.61V1000.48h-17v174.8c0,29.88-10.64,44.41-32.53,44.41h-54.13V1059.87h-17v159.82h-44.27v15.93h115.41a57.994,57.994,0,0,0,11.76-1.65l2.77-.57a39.259,39.259,0,0,0,9.18-3.92c1-.53,2-1.08,3.11-1.63,4.24-2.12,7.68-5.2,11.51-10.32a44.429,44.429,0,0,0,5.72-10.79,27.681,27.681,0,0,0,4,7.55,53.137,53.137,0,0,0,11.2,11.21l.31.19c1.38.69,2.82,1.53,4.2,2.34a38.11,38.11,0,0,0,9,4.26,44.168,44.168,0,0,0,15.74,3.33h219.65l-.63-2.52C2383.56,1230.92,2383,1229,2382.47,1227.1Z" fill="#fff"/>
        <rect id="Rectangle_3" data-name="Rectangle 3" width="17.01" height="41.85" transform="translate(2279.69 1000.48)" fill="#fff"/>
        <path id="Path_8" data-name="Path 8" d="M2811.41,1000.48h-21.93l-81.8,81.81h21.93Z" fill="#fff"/>
        <path id="Path_9" data-name="Path 9" d="M2610.56,1097.44l-.11-.14c-7-8.17-13.65-13.48-22.23-17.78-9-4.5-19.2-6.69-31.14-6.69s-22.14,2.19-31.15,6.69c-10,5-17.3,10.86-22.34,17.92a99.414,99.414,0,0,0-13.23,26.45l-.05.2a149,149,0,0,0-3.29,31.76c0,12.52,1.43,23,4.39,31.85a73.247,73.247,0,0,0,12.18,26.56c5,7.06,12.35,12.91,22.34,17.91,9,4.5,19.2,6.69,31.15,6.69s22.13-2.19,31.14-6.69c8.58-4.29,15.23-9.61,22.34-17.91a73.247,73.247,0,0,0,12.18-26.56c3-8.9,4.39-19.33,4.39-31.85s-1.43-22.95-4.39-31.86A73.132,73.132,0,0,0,2610.56,1097.44Zm-.44,58.41a116.011,116.011,0,0,1-3.17,27.55c-1.65,5.76-4.61,13.85-9.45,19.91-3.48,5.23-8.72,9.47-16.5,13.35a57.74,57.74,0,0,1-48-.05,35.25,35.25,0,0,1-16.49-13.44c-4.75-5.93-7.71-14.05-9.34-19.74a115.68,115.68,0,0,1-3.18-27.58c0-9.92,1.12-19.31,3.18-26.51,2.18-8.71,5.41-15.91,9.44-21,4-6.08,9.1-10.18,16.5-13.35a57.74,57.74,0,0,1,47.85,0c7.78,3.89,13,8.13,16.61,13.49,3.93,4.91,7.15,12.11,9.35,20.89C2609,1136.54,2610.12,1145.93,2610.12,1155.85Z" fill="#fff"/>
        <path id="Path_10" data-name="Path 10" d="M2920.47,1103.92a61.86,61.86,0,0,0-22.34-19c-8.76-4.37-20.65-6.69-34.38-6.69h-64.26l76.67-77.75h-23l-78.93,78.94v14.74h91.65c15.42,0,28,5.11,38.38,15.46,9.87,12.05,14.66,29.29,14.66,52.71v57.36H2677.89V1000.48h-17v235.14H2936v-73.29c0-12.53-1.44-22.95-4.39-31.86C2929.14,1119.55,2925.61,1111.11,2920.47,1103.92Z" fill="#fff"/>
        <path id="Path_11" data-name="Path 11" d="M3289,1130.47c-2.43-10.92-6-19.36-11.1-26.55a62,62,0,0,0-22.34-19c-8.76-4.37-20.65-6.69-34.38-6.69h-64.27l76.67-77.75h-23l-78.94,78.94v14.74h91.66c15.42,0,28,5.11,38.38,15.46,9.87,12.05,14.66,29.29,14.66,52.71v57.36H3082.82V1000.48h-17v235.14H3293.4v-73.29C3293.39,1149.8,3292,1139.38,3289,1130.47Z" fill="#fff"/>
        <path id="Path_12" data-name="Path 12" d="M3011.82,1234.68a201.538,201.538,0,0,1-2.14,28.9c-1,8-2,14.47-5,18.47l-.26.46a17.258,17.258,0,0,1-8.75,9.74c-4,2-9.16,3-15.29,3-3.16,0-6.15,0-9.08-1a36.378,36.378,0,0,1-9.23-4.08l-3.15-2.1v17.58l.59.6a24.729,24.729,0,0,0,5.93,3.62l.43.21h.47a14.49,14.49,0,0,1,4.47,1.19c.75.27,1.56.57,2.45.87l.31.1h11.13c15.88,0,27.39-6.92,34.24-20.62,6.66-14.44,9.9-33.08,9.9-57V1093.35h-17Z" fill="#fff"/>
        <rect id="Rectangle_4" data-name="Rectangle 4" width="17.01" height="41.85" transform="translate(1453.61 1028.56)" fill="#fff"/>
        <path id="Path_13" data-name="Path 13" d="M1921.53,1096.24h0c-5.81-6.79-12.85-12.42-22.13-17.72l-.29-.14a83.789,83.789,0,0,0-59.74,0l-.19.08c-10,5-17.3,10.86-22.25,17.8-5.34,6.4-9.82,15-13.32,25.49-3,9-4.43,19.55-4.43,33,0,15.26,2.53,28.25,7.74,39.71a77.281,77.281,0,0,0,17.83,25.21h-64.57c-6.67,0-11.53-1.21-16.24-4l-.29-.15a23.239,23.239,0,0,1-12-10l-.31-.39c-4.17-4.18-6.23-9.68-8.19-15.52a48.787,48.787,0,0,1-3.09-17.61v-78.69h-15.93v81.93c0,29.88-11,44.41-33.61,44.41h-48.59a42.526,42.526,0,0,1-16.38-3c-5.87-3.53-9.54-6.59-12.24-10.19l-.19-.22c-4-4-6-9.08-8.14-14.32a52.642,52.642,0,0,1-3.14-17.72v-80.85h-17v81.93c0,30.3-10.34,44.41-32.53,44.41H1379c-31.61,0-47.64-20.39-47.64-60.6v-23.63H1316.5v23.63c0,25.23,5.63,44.22,16.67,56.37,11.15,13.38,26.57,20.16,45.83,20.16h153.34a62.492,62.492,0,0,0,14.53-2.22,42.071,42.071,0,0,0,12.41-5.61c4.18-2.11,7.6-5.19,11.4-10.26a45.839,45.839,0,0,0,5.89-11.24c1.08,2.6,2.37,5.17,3.63,7.69l.19.31a53.38,53.38,0,0,0,11.2,11.21l.31.19c1.18.59,2.36,1.26,3.56,1.94,3.11,1.78,6.63,3.78,10.72,4.66a36.789,36.789,0,0,0,15.79,3.33h48.59a56.733,56.733,0,0,0,14.53-2.22,42.07,42.07,0,0,0,12.41-5.61c4.18-2.11,7.59-5.19,11.4-10.26a45.836,45.836,0,0,0,5.89-11.24c1.08,2.6,2.37,5.17,3.63,7.69l.19.31a53.377,53.377,0,0,0,11.2,11.21l.31.19c1.18.59,2.36,1.26,3.56,1.94,3.11,1.78,6.63,3.78,10.72,4.66a36.791,36.791,0,0,0,15.79,3.33h109.06a66.569,66.569,0,0,0,30.06-6.69c9.47-4.73,17-10.36,22.34-16.83a99.636,99.636,0,0,0,13.23-26.46c3.06-9.17,4.43-18.7,4.43-30.87,0-13.49-1.41-24-4.43-33C1931.35,1111.22,1926.87,1102.64,1921.53,1096.24ZM1831.78,1203c-5.3-5.3-8.42-12.9-11.42-20.88s-4.18-16-4.18-27.36c0-20.7,5.18-37.86,14.59-48.32l.14-.16c7.93-10.91,20.82-16.45,38.31-16.45,17,0,29.15,5.26,38.45,16.61,9,10,13.51,26.22,13.51,48.32,0,21.69-4.31,37.06-13.58,48.39s-21.42,16.53-38.38,16.53c-8.4,0-15.16-1.34-20.69-4.11-7.28-3.63-13-7.93-16.6-12.41Z" fill="#fff"/>
        <rect id="Rectangle_5" data-name="Rectangle 5" width="17.01" height="41.85" transform="translate(1696.58 1261.8)" fill="#fff"/>
        <rect id="Rectangle_6" data-name="Rectangle 6" width="17.01" height="41.85" transform="translate(1412.58 1028.56)" fill="#fff"/>
        <rect id="Rectangle_7" data-name="Rectangle 7" width="17.01" height="41.85" transform="translate(1843.44 1000.48)" fill="#fff"/>
        <rect id="Rectangle_8" data-name="Rectangle 8" width="17.01" height="41.85" transform="translate(1884.47 1000.48)" fill="#fff"/>
        <rect id="Rectangle_9" data-name="Rectangle 9" width="17.01" height="41.85" transform="translate(1655.54 1261.8)" fill="#fff"/>
      </g>
      <path id="Path_14" data-name="Path 14" d="M1127.63,678.09V494.38c0-26.7-23.49-51.26-51.26-51.26s-50.2,24.56-50.2,51.26V678.09c0,27.77-23.5,50.2-51.27,50.2H879.84c-27.77,0-50.2-22.43-50.2-51.27V637.51c0-107.88-86.51-194.39-193.32-194.39S443,529.63,443,637.51V677c0,28.84-22.43,51.27-50.2,51.27H312.7c-28.84,0-51.27-22.43-51.27-50.2V269c0-27.77-23.49-51.26-50.19-51.26A51.27,51.27,0,0,0,160,269V678.09c0,84.38,68.35,151.67,152.73,151.67h80.11A149.33,149.33,0,0,0,505,779.56c35.25,31,81.18,50.2,131.37,50.2s96.13-19.23,131.38-50.2c26.7,31,67.29,50.2,112.14,50.2H974.9C1058.21,829.76,1127.63,762.47,1127.63,678.09Zm-491.31,50.2c-50.19,0-91.85-40.59-91.85-90.78a91.858,91.858,0,1,1,183.715,0c-.005,50.19-41.665,90.78-91.865,90.78Z" fill="#fff"/>
      <path id="Path_15" data-name="Path 15" d="M3293.37,618c0-70.45-27.1-138.74-77-187.51-49.86-49.86-116-78-187.51-78a261.54,261.54,0,0,0-121.4,30.35,233.211,233.211,0,0,0-81.29,67.2c-79.13,24.93-134.41,99.72-134.41,186.43a199.762,199.762,0,0,0,22.76,92.13H2591a50.88,50.88,0,0,1-50.94-50.94V491.15c0-28.19-23.85-52-52-52s-51,23.84-51,52V677.58c0,28.18-23.84,50.94-52,50.94-29.27,0-50.95-22.76-50.95-50.94V491.15c0-28.19-23.84-52-52-52s-50.94,23.84-50.94,52V677.58c0,28.18-23.84,50.94-52,50.94-29.26,0-53.11-22.76-53.11-50.94V491.15c0-28.19-22.76-52-50.94-52a52,52,0,0,0-52,52V677.58a50.88,50.88,0,0,1-50.94,50.94h-85.63c-28.18,0-49.86-21.68-52-48.77V491.15c0-27.1-22.76-52-50.94-52-29.27,0-52,24.93-52,52v188.6c0,27.09-23.85,48.77-50.94,48.77H1198.18v103h482.34a153.93,153.93,0,0,0,103-39c27.09,24.93,64,39,103,39h85.63a158.56,158.56,0,0,0,103-37.93c27.1,23.84,62.87,37.93,104.05,37.93,39,0,75.88-14.09,103-37.93,27.1,23.84,62.87,37.93,103,37.93,39,0,75.87-14.09,103-37.93,27.1,23.84,62.86,37.93,103,37.93h702.37ZM2980.12,728.52h-93.21a92.06,92.06,0,0,1-92.14-92.13c0-52,41.19-93.22,92.14-93.22a93.21,93.21,0,0,1,93.21,93.22Zm210.28,0H3083.09V636.39c0-74.79-41.18-138.74-101.88-173.43,15.17-4.33,31.43-7.58,47.69-7.58,88.88,0,161.5,72.62,161.5,162.58Z" fill="#fff"/>
      <path id="Path_16" data-name="Path 16" d="M1612.23,325.31c31.43,0,57.45-26,57.45-58.53a57.14,57.14,0,0,0-57.45-57.45c-32.52,0-59.62,24.93-59.62,57.45S1579.71,325.31,1612.23,325.31Z" fill="#fff"/>
      <path id="Path_17" data-name="Path 17" d="M1472.41,325.31c31.43,0,58.53-26,58.53-58.53s-27.1-57.45-58.53-57.45c-32.52,0-58.54,24.93-58.54,57.45a58.3,58.3,0,0,0,58.54,58.53Z" fill="#fff"/>
      <path id="Path_18" data-name="Path 18" d="M1077.86,325.31c31.44,0,58.53-26,58.53-58.53s-27.09-57.45-58.53-57.45c-32.51,0-58.53,24.93-58.53,57.45a58.3,58.3,0,0,0,58.53,58.53Z" fill="#fff"/>
      <path id="Path_19" data-name="Path 19" d="M4267.36,328.42l190.24,329.5,190.24,329.51c19.48,33.74,29.22,69.91,29.22,106.08s-9.74,72.34-29.22,106.08-46,60.25-77.35,78.38c-31.71,18.3-67.95,28.07-106.57,28.07H3703c-38.63,0-74.87-9.77-106.58-28.07-31.39-18.13-57.89-44.67-77.35-78.38s-29.22-69.91-29.22-106.08,9.74-72.34,29.22-106.08l190.24-329.51,190.24-329.5c19.37-33.56,45.88-60.07,77.4-78.3v-.08c31.71-18.31,67.95-28.08,106.58-28.08S4158.3,231.73,4190,250l-.05.08c31.52,18.23,58,44.74,77.4,78.3Zm-299.53,74a469.78,469.78,0,0,1,105.65,807.08h390.44c21.68,0,41.49-5.17,58.28-14.87,17.11-9.88,31.59-24.41,42.28-42.92a113.681,113.681,0,0,0,0-116.34L4374.23,705.83,4184,376.33c-10.76-18.62-25.17-33.15-42.09-42.92h-.19c-16.79-9.7-36.6-14.88-58.28-14.88s-41.5,5.18-58.29,14.88H4025c-16.92,9.77-31.33,24.3-42.09,42.92l-15,26.06ZM3802.44,1209.5v-.27A373.14,373.14,0,0,0,3919,487L3792.64,705.83l-190.25,329.51a113.681,113.681,0,0,0,0,116.34,116.064,116.064,0,0,0,42.28,42.92c16.79,9.7,36.6,14.87,58.29,14.87Z" fill="#ffae42"/>
    </g>
  </g>
</svg>
