<?xml version="1.0" encoding="UTF-8"?>
<!DOCTYPE svg PUBLIC "-//W3C//DTD SVG 1.1//EN" "http://www.w3.org/Graphics/SVG/1.1/DTD/svg11.dtd">
<!-- Creator: CorelDRAW X7 -->
<svg xmlns="http://www.w3.org/2000/svg" xml:space="preserve" width="1.80431in" height="0.53776in" version="1.1" style="shape-rendering:geometricPrecision; text-rendering:geometricPrecision; image-rendering:optimizeQuality; fill-rule:evenodd; clip-rule:evenodd"
viewBox="0 0 114 34"
 xmlns:xlink="http://www.w3.org/1999/xlink">
 <defs>
  <style type="text/css">
   <![CDATA[
    .fil1 {fill:#1591F5}
    .fil0 {fill:#C0C6CF}
    .fil2 {fill:#1591F5;fill-rule:nonzero}
   ]]>
  </style>
 </defs>
 <g id="Layer_x0020_1">
  <metadata id="CorelCorpID_0Corel-Layer"/>
  <rect class="fil0" transform="matrix(0.866025 0.5 -0.546979 0.947396 89.4518 4.24707)" width="6.11866" height="26.9944" rx="3" ry="3"/>
  <rect class="fil0" transform="matrix(0.866025 0.5 -0.490313 0.849248 105.665 -1.12196)" width="6.11866" height="26.9944" rx="3" ry="3"/>
  <rect class="fil1" transform="matrix(0.866025 0.5 -0.370582 0.641867 109.665 14.6652)" width="6.11866" height="26.9944" rx="3" ry="3"/>
  <path class="fil2" d="M11 26l2 3 -2 2 -3 -2 3 -3zm13 -2l0 0c-3,0 -4,-1 -5,-3 -2,2 -5,3 -9,3 -3,0 -6,0 -7,-1 -2,-1 -3,-3 -3,-5 0,-2 0,-3 1,-5l2 1c-1,2 -1,3 0,4 1,1 3,2 6,2 3,0 6,0 8,-1 1,-1 2,-2 2,-3l2 0c0,1 0,1 0,1 0,1 0,2 1,3 0,0 1,0 2,0l0 0c0,0 1,1 1,2l0 1c0,1 -1,1 -1,1zm1 3l3 2 -3 2 -2 -2 2 -2zm5 0l2 2 -2 2 -2 -2 2 -2zm3 -3l0 0c-2,0 -3,0 -4,-2 -1,2 -2,2 -4,2l-1 0c-1,0 -1,0 -1,-2l0 0c0,-1 0,-2 1,-2l1 0c2,0 3,0 3,-2l0 -2 2 0 0 2c0,2 1,2 3,2l0 0c1,0 1,1 1,2l0 1c0,1 0,1 -1,1zm0 0c-1,0 -1,0 -1,-2l0 0c0,-1 0,-2 1,-2l0 0c2,0 3,0 3,-1 0,0 0,-1 0,-2 0,-3 0,-7 -1,-11l3 -1c1,-1 1,-1 1,0l0 12c0,2 0,4 -1,5 -1,1 -2,2 -5,2l0 0zm17 -1c-1,3 -2,5 -3,7 -1,0 -1,1 -1,1 -1,0 -1,0 -2,0 -1,0 -2,0 -3,-1 -1,0 -1,0 -1,0 0,0 1,0 1,-1 4,-2 6,-4 7,-6 0,0 -1,-2 -3,-4l2 -3c0,0 0,0 0,0 2,2 3,4 3,6 0,1 0,1 0,1zm7 1l-1 0c-2,0 -4,-1 -4,-3 -1,-1 -1,-2 -1,-4 0,-6 0,-9 0,-11l3 -1c0,-1 0,0 0,0 1,2 0,5 0,10 0,2 0,4 1,4 0,1 1,1 2,1l0 0c0,0 1,1 1,2l0 1c0,1 -1,1 -1,1zm0 0c-1,0 -1,0 -1,-2l0 0c0,-1 0,-2 1,-2l1 0c3,0 4,0 5,-1 0,0 1,0 0,-1 0,-1 -2,-3 -6,-6l1 -3 10 -4c1,0 1,0 1,0l0 3 -8 3c3,3 5,5 5,8 0,1 -1,2 -2,3 -1,2 -3,2 -6,2l-1 0z"/>
 </g>
</svg>
