<?xml version="1.0" encoding="UTF-8"?>
<svg width="67px" height="100px" viewBox="0 0 67 100" version="1.1" xmlns="http://www.w3.org/2000/svg" xmlns:xlink="http://www.w3.org/1999/xlink">
    <!-- Generator: Sketch 48.2 (47327) - http://www.bohemiancoding.com/sketch -->
    <title>virgool</title>
    <desc>Created with Sketch.</desc>
    <defs>
        <linearGradient x1="1.11165814%" y1="62.6898975%" x2="101.111646%" y2="33.9198963%" id="linearGradient-1">
            <stop stop-color="#107ABD" offset="0%"></stop>
            <stop stop-color="#0658A5" offset="100%"></stop>
        </linearGradient>
    </defs>
    <g id="Page-1" stroke="none" stroke-width="1" fill="none" fill-rule="evenodd">
        <g id="virgool" transform="translate(0.000000, -3.000000)" fill-rule="nonzero">
            <path d="M33.0585424,103 C27.7142855,99.2957588 22.4689964,95.6582606 17.058761,91.9206478 C20.3246958,87.2820034 23.5576413,82.7768451 26.6256406,78.4385446 C23.2937274,77.0369398 19.8628464,76.0357935 16.926804,74.2003586 C5.34758077,67.025477 -0.887385601,56.6469272 0.102291601,42.6976223 C1.12495804,28.2143728 8.77846174,18.0360523 22.0401362,13.1971786 C44.406841,5.05452217 63.2766863,20.906005 66.3776749,38.3926933 C67.7302337,46.0014051 67.0044704,53.4766306 62.9467939,60.1175676 C58.8561281,66.8252477 54.303613,73.2659555 49.8170764,79.7066632 C44.6707549,87.0484026 39.3594873,94.2900274 34.1471873,101.565024 C33.8502842,101.965482 33.553381,102.365941 33.0585424,103 Z" id="Shape" fill="url(#linearGradient-1)"></path>
            <g id="Fill-1" transform="translate(37.816987, 35.816987) rotate(-150.000000) translate(-37.816987, -35.816987) translate(18.316987, 6.816987)">
                <g id="Group" transform="translate(0.000000, 0.335294)" fill="#000000">
                    <path d="M36.6568966,56.4970588 C33.0534483,56.4970588 29.5155172,56.4970588 25.8793103,56.4970588 C25.9448276,53.3117647 26.0103448,40.0341176 26.0758621,37.05 C24.1103448,37.4523529 22.2103448,38.0894118 20.3103448,38.19 C12.7758621,38.5923529 6.71551724,35.7423529 2.85,28.9694118 C-1.17931034,21.9282353 -0.818965517,14.7194118 3.76724138,8.24823529 C11.4982759,-2.71588235 25.0931034,-1.40823529 31.9068966,5.7 C34.887931,8.78470588 36.8862069,12.5064706 37.05,16.8988235 C37.2465517,21.3247059 37.1482759,25.7505882 37.0827586,30.21" id="path-2_2_"></path>
                </g>
                <g id="Group" transform="translate(0.327586, 0.000000)" fill="#FFFFFF">
                    <path d="M36.8862069,56.4970588 C33.2827586,56.4970588 29.7448276,56.4970588 26.1086207,56.4970588 C26.1741379,53.3117647 26.2396552,40.0341176 26.3051724,37.05 C24.3396552,37.4523529 22.4396552,38.0894118 20.5396552,38.19 C13.0051724,38.5923529 6.94482759,35.7423529 3.07931034,28.9694118 C-0.95,21.9282353 -0.589655172,14.7194118 3.99655172,8.24823529 C11.7275862,-2.71588235 25.3224138,-1.40823529 32.1362069,5.7 C35.1172414,8.78470588 37.1155172,12.5064706 37.2793103,16.8988235 C37.4758621,21.3247059 37.3775862,25.7505882 37.312069,30.21" id="path-2_1_"></path>
                </g>
            </g>
        </g>
    </g>
</svg>