<?xml version="1.0" encoding="UTF-8"?>
<svg width="547px" height="175px" viewBox="0 0 547 175" version="1.1" xmlns="http://www.w3.org/2000/svg" xmlns:xlink="http://www.w3.org/1999/xlink">
    <!-- Generator: Sketch 63.1 (92452) - https://sketch.com -->
    <title>React_conf</title>
    <desc>Created with Sketch.</desc>
    <defs>
        <linearGradient x1="177.015483%" y1="61.4789108%" x2="1085.47784%" y2="143.486385%" id="linearGradient-1">
            <stop stop-color="#6658F6" offset="0%"></stop>
            <stop stop-color="#F3B564" offset="100%"></stop>
        </linearGradient>
        <linearGradient x1="74.143573%" y1="52.1268321%" x2="248.143982%" y2="66.1234379%" id="linearGradient-2">
            <stop stop-color="#6658F6" offset="0%"></stop>
            <stop stop-color="#F3B564" offset="100%"></stop>
        </linearGradient>
        <linearGradient x1="79.5021677%" y1="53.3059123%" x2="1192.0685%" y2="189.783463%" id="linearGradient-3">
            <stop stop-color="#6658F6" offset="0%"></stop>
            <stop stop-color="#F3B564" offset="100%"></stop>
        </linearGradient>
        <linearGradient x1="296.363623%" y1="80.1868273%" x2="1417.5045%" y2="217.582011%" id="linearGradient-4">
            <stop stop-color="#6658F6" offset="0%"></stop>
            <stop stop-color="#F3B564" offset="100%"></stop>
        </linearGradient>
        <linearGradient x1="329.289207%" y1="84.2103397%" x2="1451.00842%" y2="221.620642%" id="linearGradient-5">
            <stop stop-color="#6658F6" offset="0%"></stop>
            <stop stop-color="#F3B564" offset="100%"></stop>
        </linearGradient>
        <linearGradient x1="-30.6155728%" y1="47.4852793%" x2="1356.70607%" y2="90.1660637%" id="linearGradient-6">
            <stop stop-color="#6658F6" offset="0%"></stop>
            <stop stop-color="#F3B564" offset="100%"></stop>
        </linearGradient>
        <linearGradient x1="113.304427%" y1="57.5263265%" x2="1241.23926%" y2="195.59936%" id="linearGradient-7">
            <stop stop-color="#6658F6" offset="0%"></stop>
            <stop stop-color="#F3B564" offset="100%"></stop>
        </linearGradient>
        <linearGradient x1="520.138606%" y1="64.4353304%" x2="1907.46025%" y2="107.130008%" id="linearGradient-8">
            <stop stop-color="#6658F6" offset="0%"></stop>
            <stop stop-color="#F3B564" offset="100%"></stop>
        </linearGradient>
        <linearGradient x1="-140.512065%" y1="24.1403121%" x2="352.815351%" y2="97.7903604%" id="linearGradient-9">
            <stop stop-color="#6658F6" offset="0%"></stop>
            <stop stop-color="#F3B564" offset="100%"></stop>
        </linearGradient>
        <linearGradient x1="-181.110415%" y1="9.34953736%" x2="236.2855%" y2="82.9995857%" id="linearGradient-10">
            <stop stop-color="#6658F6" offset="0%"></stop>
            <stop stop-color="#F3B564" offset="100%"></stop>
        </linearGradient>
        <linearGradient x1="-346.284063%" y1="-0.342292519%" x2="200.564272%" y2="72.8155302%" id="linearGradient-11">
            <stop stop-color="#6658F6" offset="0%"></stop>
            <stop stop-color="#F3B564" offset="100%"></stop>
        </linearGradient>
        <linearGradient x1="-354.235311%" y1="-14.7816798%" x2="92.649357%" y2="56.4294298%" id="linearGradient-12">
            <stop stop-color="#6658F6" offset="0%"></stop>
            <stop stop-color="#F3B564" offset="100%"></stop>
        </linearGradient>
        <linearGradient x1="-417.291185%" y1="-30.9073332%" x2="18.8333513%" y2="42.7427151%" id="linearGradient-13">
            <stop stop-color="#6658F6" offset="0%"></stop>
            <stop stop-color="#F3B564" offset="100%"></stop>
        </linearGradient>
        <linearGradient x1="-130.823057%" y1="20.8439101%" x2="316.344586%" y2="92.0549938%" id="linearGradient-14">
            <stop stop-color="#6658F6" offset="0%"></stop>
            <stop stop-color="#F3B564" offset="100%"></stop>
        </linearGradient>
        <linearGradient x1="-245.060525%" y1="7.78100612%" x2="252.515599%" y2="78.9846972%" id="linearGradient-15">
            <stop stop-color="#6658F6" offset="0%"></stop>
            <stop stop-color="#F3B564" offset="100%"></stop>
        </linearGradient>
        <linearGradient x1="-289.240103%" y1="-7.40127037%" x2="145.995435%" y2="66.2524165%" id="linearGradient-16">
            <stop stop-color="#6658F6" offset="0%"></stop>
            <stop stop-color="#F3B564" offset="100%"></stop>
        </linearGradient>
        <linearGradient x1="-307.374626%" y1="-19.9806683%" x2="68.7025865%" y2="53.6592102%" id="linearGradient-17">
            <stop stop-color="#6658F6" offset="0%"></stop>
            <stop stop-color="#F3B564" offset="100%"></stop>
        </linearGradient>
    </defs>
    <g id="Page-1" stroke="none" stroke-width="1" fill="none" fill-rule="evenodd">
        <g id="React_conf" fill-rule="nonzero">
            <path d="M116.24,86.87 C116.24,76.5257066 107.854293,68.14 97.51,68.14 C87.1657066,68.14 78.78,76.5257066 78.78,86.87 C78.78,97.2142934 87.1657066,105.6 97.51,105.6 C107.849724,105.588977 116.228977,97.209724 116.24,86.87 L116.24,86.87 Z M97.5,97.25 C91.7672843,97.25 87.12,92.6027157 87.12,86.87 C87.12,81.1372843 91.7672843,76.49 97.5,76.49 C103.232716,76.49 107.88,81.1372843 107.88,86.87 C107.874487,92.6004307 103.230431,97.2444873 97.5,97.25 L97.5,97.25 Z" id="Shape" fill="url(#linearGradient-1)"></path>
            <path d="M158.52,59 C157.93,58.82 154.12,57.65 149.47,56.62 C150.92,51.69 151.99,47.45 152.07,47.16 C157.73,24.26 155.55,8.58 145.92,3.01 C136.29,-2.56 121.52,3.44 104.36,20.01 C103.36,21.01 95,29.6 92.79,32.3 L92.79,32.3 C87.15,39.09 79.68,49.43 77.61,52.3 C70.02,52.38 59.12,54.13 53.52,55.12 C51.78,49.49 50.91,45.59 50.89,45.52 C50.8943353,45.496868 50.8943353,45.473132 50.89,45.45 C50.8946785,45.4302736 50.8946785,45.4097264 50.89,45.39 C46.15,26.67 46.89,12.91 52.84,9.49 C58.79,6.07 70.97,12.28 84.75,25.67 C85.8165321,26.737516 87.3756398,27.1473196 88.8292445,26.7422088 C90.2828492,26.3370979 91.4052627,25.1799706 91.7659237,23.7147044 C92.1265847,22.2494382 91.6694967,20.703532 90.57,19.67 C73.19,2.83 58.31,-3.36 48.62,2.24 C38.93,7.84 36.79,23.87 42.71,47.32 C45.3428442,58.5232733 49.2272537,69.3949238 54.29,79.73 C55.75,82.96 56.99,85.57 57.61,86.85 C53.92,93.4 49.91,103.6 47.89,108.96 L38.6,106.66 C20.23,101.45 8.35,93.66 8.35,86.93 C8.35,80.2 19.82,72.48 38.29,67.22 C39.8532084,66.9314362 41.1174469,65.781181 41.551991,64.2521091 C41.9865351,62.7230371 41.5161663,61.0798272 40.3383442,60.012295 C39.1605222,58.9447628 37.4791253,58.6376958 36,59.22 C12.78,65.81 0,75.66 0,86.93 C0,98.2 12.9,108 36.46,114.73 C38.46,115.23 48.46,117.73 49.66,117.97 L49.66,117.97 C58.25,119.79 73.56,121.19 77.66,121.54 C81.41,127.94 88.16,136.26 91.86,140.66 C88.59,144.4 85.86,147.48 85.35,147.99 C71.27,162.17 58.62,168.73 52.35,165.1 C46.08,161.47 45.5,147 50.84,127.29 C51.2764633,125.832404 50.8864237,124.252768 49.821675,123.165848 C48.7569263,122.078927 47.1856635,121.656419 45.7193828,122.062753 C44.2531022,122.469087 43.1234275,123.640076 42.77,125.12 C36.11,149.74 38.01,166.52 48.12,172.36 C50.5927572,173.766092 53.3956699,174.487531 56.24,174.451393 C65.74,174.451393 77.85,167.39 91.31,153.83 C91.3616864,153.784933 91.4085999,153.734668 91.45,153.68 C91.69,153.42 94.26,150.57 97.45,146.93 C99.79,149.4 102.73,152.5 103.88,153.67 L103.88,153.74 C103.94,153.8 104.02,153.86 104.08,153.93 L104.22,154.07 L104.22,154.07 C117.39,166.93 129.17,173.63 138.37,173.63 C141.167127,173.687097 143.928815,172.996674 146.37,171.63 C156.24,165.93 158.28,149.69 152.12,125.9 C151.770678,124.426308 150.651532,123.256851 149.194614,122.843105 C147.737695,122.42936 146.170942,122.836058 145.099208,123.90619 C144.027475,124.976321 143.618434,126.542465 144.03,128 C148.94,147 148.24,160.89 142.19,164.38 C136.14,167.87 123.79,161.55 109.89,147.9 C109.02,147.02 105.8,143.61 102.89,140.57 C105.66,137.33 108.25,134.21 109.74,132.18 C111.104143,130.321562 110.703438,127.709143 108.845,126.345 C106.986562,124.980857 104.374143,125.381562 103.01,127.24 C101.77,128.92 99.65,131.49 97.29,134.24 C94.84,131.3 91.44,127.08 88.52,123 L89.74,123 C112.753125,123.488509 135.723461,120.79641 158,115 C158.079902,114.994412 158.160098,114.994412 158.24,115 C158.45,115 158.65,114.89 158.86,114.82 L159.03,114.82 L159.1,114.82 C161.03,114.27 162.93,113.71 164.73,113.13 C184.91,106.54 195.58,97.5 195.58,87 C195.58,75.44 182.43,65.5 158.52,59 Z M133,97.34 C134.82,101.34 137,106.34 138.68,110.75 C133.78,111.64 128.87,112.41 123.97,113.01 C126.39,109.05 129.61,103.62 133,97.34 Z M133.14,76.58 C130.98,72.58 127.98,67.22 124.32,61.32 C128.67,61.73 134.01,62.32 138.58,63.01 C137.24,66.65 135.23,71.88 133.13,76.58 L133.14,76.58 Z M99.21,37.58 L99.21,37.58 L99.21,37.58 C100.84,35.58 107.77,28.4 110.21,25.89 C123.75,12.82 135.81,6.82 141.7,10.21 C147.59,13.6 148.45,27 144,45.09 C144,45.16 142.81,49.84 141.27,54.99 C132.62,53.57 120.99,52.61 117.53,52.35 C115.395161,48.8468039 113.057861,45.4710744 110.53,42.24 C109.631878,41.0235631 108.146829,40.3869964 106.646542,40.5753544 C105.146254,40.7637123 103.864653,41.7476263 103.295107,43.1483258 C102.725562,44.5490253 102.956875,46.1481132 103.9,47.33 C104.9,48.59 105.76,49.79 106.57,50.92 C102.04,50.8 95.91,50.75 88.98,50.92 C92,46.74 96,41.49 99.2,37.61 L99.21,37.58 Z M70.87,61.08 C68.44,65 65.27,70.27 62,76.42 C60.18,72.42 58,67.42 56.32,63.13 C60.12,62.47 65.7,61.59 70.87,61.08 Z M56.19,110.67 C57.59,107.02 59.67,101.77 61.83,97.05 C64.02,101.11 67.09,106.53 70.83,112.51 C66.33,112 60.84,111.4 56.19,110.67 Z M90,114.67 C87.32,114.6 84.61,114.5 81.93,114.34 C76.0911706,105.47003 70.7496074,96.2825411 65.93,86.82 C70.6785249,77.4444072 75.9674254,68.3524401 81.77,59.59 C92.2455457,59.0399888 102.74211,59.016626 113.22,59.52 C118.993368,68.3168893 124.261871,77.4349387 129,86.83 C124.285865,96.1570988 119.078496,105.226601 113.4,114 C105.616928,114.63048 97.806979,114.867448 90,114.71 L90,114.67 Z M162.13,105.08 C160.4,105.65 158.57,106.19 156.7,106.71 C153.46,107.56 150.22,108.31 146.97,109.03 C143.87,100.72 138.81,89.89 137.35,86.81 C140.79,80.69 144.41,71.33 146.45,65.74 C146.6,65.34 146.75,64.94 146.9,64.52 C151.84,65.58 156.05,66.89 156.1,66.9 L156.24,66.9 C175.35,72.14 187.24,79.77 187.24,86.84 C187.22,93.18 177.85,100 162.13,105.12 L162.13,105.08 Z" id="Shape" fill="url(#linearGradient-2)"></path>
            <path d="M125,133.6 C124.039573,134.154077 123.339359,135.067843 123.054132,136.139322 C122.768905,137.210801 122.922152,138.351758 123.48,139.31 L131.6,153.31 C132.315881,154.667753 133.71832,155.523933 135.253153,155.540227 C136.787986,155.556522 138.208286,154.730308 138.952831,153.38806 C139.697376,152.045812 139.646383,150.403472 138.82,149.11 L130.71,135.11 C130.15425,134.151268 129.239744,133.453174 128.168408,133.169861 C127.097072,132.886548 125.957028,133.041319 125,133.6 Z" id="Path" fill="url(#linearGradient-3)"></path>
            <path d="M60.85,155.38 C62.3402243,155.377982 63.7177922,154.586451 64.47,153.3 L72.58,139.3 C73.3284715,138.010271 73.3320255,136.419208 72.5893233,135.126148 C71.8466211,133.833089 70.4704969,133.034479 68.9793232,133.031138 C67.4881496,133.027817 66.1084714,133.820271 65.36,135.11 L57.24,149.11 C56.4890804,150.402365 56.4853726,151.997336 57.2302753,153.293178 C57.9751781,154.58902 59.3553148,155.388501 60.85,155.39 L60.85,155.38 Z" id="Path" fill="url(#linearGradient-4)"></path>
            <path d="M59,19.7 C58.0412676,20.2557502 57.343174,21.1702565 57.0598611,22.241592 C56.7765482,23.3129275 56.9313192,24.4529724 57.49,25.41 L65.6,39.41 C66.3522078,40.6964509 67.7297757,41.4879817 69.22,41.49 C70.7146852,41.4885007 72.0948219,40.6890196 72.8397247,39.3931777 C73.5846274,38.0973358 73.5809196,36.5023645 72.83,35.21 L64.72,21.21 C63.5549903,19.2167113 60.9970508,18.541451 59,19.7 Z" id="Path" fill="url(#linearGradient-5)"></path>
            <path d="M173.49,82.8 L157.32,82.8 L157.32,82.8 C155.01145,82.8 153.14,84.6714497 153.14,86.98 C153.14,89.2885503 155.01145,91.16 157.32,91.16 L173.49,91.16 L173.49,91.16 C175.79855,91.16 177.67,89.2885503 177.67,86.98 C177.67,84.6714497 175.79855,82.8 173.49,82.8 L173.49,82.8 Z" id="Path" fill="url(#linearGradient-6)"></path>
            <path d="M125.21,40.92 C125.844892,41.2881915 126.566072,41.4814262 127.3,41.4800078 C128.790224,41.4779817 130.167792,40.6864509 130.92,39.4 L139.03,25.4 C140.10542,23.4115641 139.405099,20.9284321 137.449192,19.7949261 C135.493286,18.6614201 132.990609,19.2883191 131.8,21.21 L123.69,35.21 C122.534037,37.2066523 123.214351,39.7623058 125.21,40.92 Z" id="Path" fill="url(#linearGradient-7)"></path>
            <path d="M37.29,82.74 L21.12,82.74 L21.12,82.74 C18.8114497,82.74 16.94,84.6114497 16.94,86.92 C16.94,89.2285503 18.8114497,91.1 21.12,91.1 L37.29,91.1 L37.29,91.1 C39.5985503,91.1 41.47,89.2285503 41.47,86.92 C41.47,84.6114497 39.5985503,82.74 37.29,82.74 L37.29,82.74 Z" id="Path" fill="url(#linearGradient-8)"></path>
            <path d="M216.42,77.12 L216.42,4.71 L247.19,4.71 C254.93,4.71 260.553333,5.36 264.06,6.66 C267.571016,7.95858633 270.541201,10.4037923 272.49,13.6 C274.617662,17.0170663 275.714826,20.9751914 275.65,25 C275.829098,29.9352439 274.111487,34.7517108 270.85,38.46 C267.663333,42 262.89,44.23 256.53,45.15 C259.420963,46.7863401 262.058569,48.8344427 264.36,51.23 C267.470396,54.9038706 270.254287,58.8421399 272.68,63 L281.52,77.12 L264,77.12 L253.47,61.37 C251.12627,57.6615653 248.551166,54.104516 245.76,50.72 C244.555604,49.3810834 243.046352,48.3520483 241.36,47.72 C238.964418,47.0646405 236.48108,46.7879642 234,46.9 L231,46.9 L231,77.12 L216.42,77.12 Z M231,35.33 L241.82,35.33 C248.826667,35.33 253.206667,35.0333333 254.96,34.44 C256.628958,33.9043829 258.071697,32.8276069 259.06,31.38 C260.099989,29.7820608 260.630055,27.9059071 260.58,26 C260.682258,23.8598216 259.987495,21.7577178 258.63,20.1 C257.191362,18.5257821 255.236857,17.5183786 253.12,17.26 C251.94,17.0866667 248.383333,17 242.45,17 L231,17 L231,35.33 Z" id="Shape" fill="url(#linearGradient-9)"></path>
            <polygon id="Path" fill="url(#linearGradient-10)" points="289.43 77.12 289.43 4.71 343.12 4.71 343.12 17 304.05 17 304.05 33 340.41 33 340.41 45.2 304.05 45.2 304.05 64.92 344.51 64.92 344.51 77.12"></polygon>
            <path d="M422.21,77.12 L406.3,77.12 L400,60.67 L371,60.67 L365,77.12 L349.55,77.12 L377.75,4.71 L393.21,4.71 L422.21,77.12 Z M395.29,48.47 L385.29,21.6 L375.51,48.47 L395.29,48.47 Z" id="Shape" fill="url(#linearGradient-11)"></path>
            <path d="M471.3,50.5 L485.48,55 C483.3,62.9133333 479.683333,68.7833333 474.63,72.61 C469.576667,76.4366667 463.163333,78.3566667 455.39,78.37 C445.776667,78.37 437.873333,75.0833333 431.68,68.51 C425.486667,61.9366667 422.393333,52.9533333 422.399989,41.56 C422.399989,29.5 425.51,20.14 431.73,13.48 C437.95,6.82 446.133333,3.48666667 456.28,3.48 C465.14,3.48 472.336667,6.1 477.87,11.34 C481.163333,14.4333333 483.633333,18.8766667 485.28,24.67 L470.81,28.13 C469.401425,20.8781275 462.922523,15.7314951 455.54,16 C450.534295,15.840799 445.728109,17.9678858 442.48,21.78 C439.146667,25.6333333 437.48,31.8733333 437.48,40.5 C437.48,49.66 439.126667,56.18 442.42,60.06 C445.573548,63.8829816 450.316305,66.0347539 455.27,65.89 C458.95009,65.9585169 462.520785,64.6373598 465.27,62.19 C468.07,59.7033333 470.08,55.8066667 471.3,50.5 Z" id="Path" fill="url(#linearGradient-12)"></path>
            <polygon id="Path" fill="url(#linearGradient-13)" points="510.33 77.12 510.33 17 488.84 17 488.84 4.71 546.39 4.71 546.39 17 525 17 525 77.12"></polygon>
            <path d="M262.7,134.67 L276.88,139.16 C274.713333,147.053333 271.086667,152.923333 266,156.77 C260.913333,160.616667 254.5,162.536667 246.76,162.530017 C237.14,162.530017 229.236667,159.243333 223.05,152.67 C216.863333,146.096667 213.766667,137.113333 213.76,125.72 C213.76,113.673333 216.873333,104.313333 223.1,97.63999 C229.326667,90.9666667 237.51,87.6333333 247.65,87.63999 C256.51,87.63999 263.703333,90.2566667 269.23,95.49 C272.563333,98.59 275.033333,103.036667 276.64,108.83 L262.17,112.29 C260.775799,105.068648 254.351514,99.9232912 247,100.13999 C241.990546,99.9762474 237.179423,102.10389 233.93,105.92 C230.596667,109.766667 228.93,116.006667 228.93,124.63999 C228.93,133.793333 230.576667,140.313333 233.87,144.2 C237.009539,147.998215 241.724136,150.13786 246.65,150 C250.331092,150.0638 253.901257,148.739268 256.65,146.29 C259.47,143.843333 261.486667,139.97 262.7,134.67 Z" id="Path" fill="url(#linearGradient-14)"></path>
            <path d="M285.46,125.53 C285.46,118.15 286.563333,111.956667 288.77,106.95 C290.42011,103.269685 292.704947,99.9084351 295.52,97.02 C298.164927,94.2336676 301.349657,92.0152445 304.88,90.5 C309.838122,88.506842 315.1473,87.5341162 320.49,87.64 C331.156667,87.64 339.693333,90.95 346.1,97.57 C352.506667,104.19 355.71,113.393333 355.71,125.18 C355.71,136.866667 352.53,146.013333 346.17,152.62 C339.81,159.226667 331.316667,162.53 320.69,162.53 C309.923333,162.53 301.36,159.243333 295,152.67 C288.64,146.096667 285.46,137.05 285.46,125.53 Z M300.53,125.03 C300.53,133.23 302.423333,139.446667 306.21,143.68 C309.908894,147.711097 315.129025,150.005879 320.6,150.005879 C326.070975,150.005879 331.291106,147.711097 334.99,143.68 C338.723333,139.48 340.59,133.18 340.59,124.78 C340.59,116.486667 338.77,110.296667 335.13,106.21 C331.49,102.123333 326.66,100.083333 320.64,100.089984 C314.64,100.089984 309.78,102.156667 306.06,106.29 C302.34,110.423333 300.496667,116.66 300.53,125 L300.53,125.03 Z" id="Shape" fill="url(#linearGradient-15)"></path>
            <polygon id="Path" fill="url(#linearGradient-16)" points="366.27 161.29 366.27 88.87 380.5 88.87 410.13 137.23 410.13 88.87 423.72 88.87 423.72 161.29 409.05 161.29 379.85 114.07 379.85 161.29"></polygon>
            <polygon id="Path" fill="url(#linearGradient-17)" points="436.28 161.29 436.28 88.87 485.92 88.87 485.92 101.12 450.92 101.12 450.92 118.27 481.15 118.27 481.15 130.52 450.9 130.52 450.9 161.29"></polygon>
        </g>
    </g>
</svg>